<?xml version="1.0" encoding="UTF-8"?>
<svg version="1.1" xmlns="http://www.w3.org/2000/svg" width="512" height="512">
<path d="M0 0 C1.01790619 0.00215515 2.03581238 0.0043103 3.08456421 0.00653076 C17.69363523 0.05620146 32.02575853 0.30709809 46.375 3.3125 C47.34985352 3.51117676 48.32470703 3.70985352 49.32910156 3.91455078 C97.7109774 14.03517194 141.69928269 35.9516877 177.375 70.3125 C178.3640332 71.26068604 178.3640332 71.26068604 179.37304688 72.22802734 C188.86130305 81.37247479 197.6012044 90.66984009 205.375 101.3125 C206.23306152 102.46355017 207.09113451 103.61459177 207.94921875 104.765625 C213.98736829 112.95680614 219.34595521 121.47054105 224.375 130.3125 C224.73948242 130.94430176 225.10396484 131.57610352 225.47949219 132.22705078 C247.08534998 169.97532572 256.85198095 212.74189997 256.6875 255.9375 C256.68534485 256.95540619 256.6831897 257.97331238 256.68096924 259.02206421 C256.63129854 273.63113523 256.38040191 287.96325853 253.375 302.3125 C253.07698486 303.77478027 253.07698486 303.77478027 252.77294922 305.26660156 C242.65232806 353.6484774 220.7358123 397.63678269 186.375 433.3125 C185.74287598 433.97185547 185.11075195 434.63121094 184.45947266 435.31054688 C175.31502521 444.79880305 166.01765991 453.5387044 155.375 461.3125 C154.22394983 462.17056152 153.07290823 463.02863451 151.921875 463.88671875 C143.73224019 469.92427396 135.22961724 475.30707302 126.375 480.3125 C125.66778809 480.7146875 124.96057617 481.116875 124.23193359 481.53125 C101.09654164 494.5566741 75.92537591 503.30551461 49.9375 508.625 C49.21860596 508.77235596 48.49971191 508.91971191 47.7590332 509.0715332 C33.08339502 511.86090125 18.55831162 512.66142619 3.64770508 512.62817383 C0.70811513 512.6250221 -2.2304558 512.64854926 -5.16992188 512.67382812 C-18.54306192 512.71848737 -31.43916711 511.51301542 -44.625 509.3125 C-46.33055054 509.03031616 -46.33055054 509.03031616 -48.07055664 508.74243164 C-91.33802759 500.97044532 -132.38793216 480.98345309 -165.625 452.3125 C-166.37007813 451.67828125 -167.11515625 451.0440625 -167.8828125 450.390625 C-181.38779833 438.57948485 -194.05918743 425.82889772 -204.625 411.3125 C-205.48149066 410.16255169 -206.33826433 409.01281411 -207.1953125 407.86328125 C-213.23534209 399.67315742 -218.61867614 391.16870382 -223.625 382.3125 C-224.0271875 381.60528809 -224.429375 380.89807617 -224.84375 380.16943359 C-237.8691741 357.03404164 -246.61801461 331.86287591 -251.9375 305.875 C-252.08485596 305.15610596 -252.23221191 304.43721191 -252.3840332 303.6965332 C-255.35789088 288.05024391 -255.99800362 272.57681954 -255.9375 256.6875 C-255.93534485 255.66959381 -255.9331897 254.65168762 -255.93096924 253.60293579 C-255.88129854 238.99386477 -255.63040191 224.66174147 -252.625 210.3125 C-252.42632324 209.33764648 -252.22764648 208.36279297 -252.02294922 207.35839844 C-241.90232806 158.9765226 -219.9858123 114.98821731 -185.625 79.3125 C-184.99287598 78.65314453 -184.36075195 77.99378906 -183.70947266 77.31445312 C-174.56502521 67.82619695 -165.26765991 59.0862956 -154.625 51.3125 C-153.47394983 50.45443848 -152.32290823 49.59636549 -151.171875 48.73828125 C-142.98224019 42.70072604 -134.47961724 37.31792698 -125.625 32.3125 C-124.91778809 31.9103125 -124.21057617 31.508125 -123.48193359 31.09375 C-100.34654164 18.0683259 -75.17537591 9.31948539 -49.1875 4 C-48.46860596 3.85264404 -47.74971191 3.70528809 -47.0090332 3.5534668 C-31.36274391 0.57960912 -15.88931954 -0.06050362 0 0 Z " fill="#197F4C" transform="translate(255.625,-0.3125)"/>
<path d="M0 0 C8.63296808 5.02011153 15.97163541 12.76385441 19.12890625 22.390625 C21.16314985 33.91800538 18.64093176 43.8846849 12.1875 53.44140625 C10.18989471 55.80723372 7.95696831 57.58601156 5.4921875 59.44921875 C7.24015625 59.743125 7.24015625 59.743125 9.0234375 60.04296875 C28.77410315 63.56491203 48.032234 69.42750405 65.4921875 79.44921875 C66.15653809 79.82804199 66.82088867 80.20686523 67.50537109 80.59716797 C77.34698074 86.2885608 86.16876291 92.71308028 94.4921875 100.44921875 C95.12656738 101.03445312 95.76094727 101.6196875 96.41455078 102.22265625 C106.58478414 111.70667555 115.06725385 121.6909998 122.4921875 133.44921875 C122.90549316 134.09826172 123.31879883 134.74730469 123.74462891 135.41601562 C136.77969553 156.23407906 144.66058014 180.71393695 144.6796875 205.32421875 C144.69193359 206.17757812 144.70417969 207.0309375 144.71679688 207.91015625 C144.71873047 208.72484375 144.72066406 209.53953125 144.72265625 210.37890625 C144.72676514 211.11351074 144.73087402 211.84811523 144.73510742 212.60498047 C144.4921875 214.44921875 144.4921875 214.44921875 142.4921875 216.44921875 C140.20706654 216.69991708 140.20706654 216.69991708 137.28535461 216.70090103 C136.17488612 216.70611653 135.06441763 216.71133202 133.92029858 216.71670556 C132.69016694 216.71224412 131.46003531 216.70778267 130.19262695 216.70318604 C128.2443259 216.70786601 128.2443259 216.70786601 126.25666523 216.71264052 C122.63930989 216.72102589 119.02205944 216.7168464 115.40470362 216.71066809 C111.50826953 216.70615981 107.61185403 216.71311925 103.71542358 216.71862793 C96.07753667 216.72754102 88.43968897 216.72559142 80.80180049 216.71980265 C74.59667434 216.71529367 68.3915592 216.71466993 62.18643188 216.71685028 C61.30471544 216.71715675 60.42299899 216.71746321 59.51456386 216.71777897 C57.72361238 216.71841839 55.93266091 216.71906681 54.14170945 216.71972415 C37.33115317 216.72543305 20.52061867 216.71886078 3.71006596 216.70812342 C-10.72747996 216.6991874 -25.16499372 216.70073928 -39.60253906 216.70996094 C-56.35119691 216.72065369 -73.09983565 216.72488368 -89.84849644 216.71873641 C-91.63301658 216.71809928 -93.41753673 216.71747054 -95.20205688 216.71685028 C-96.08017255 216.71654173 -96.95828822 216.71623318 -97.86301345 216.71591528 C-104.06374009 216.71418535 -110.26445467 216.71710984 -116.46517944 216.72180939 C-124.01741167 216.72740719 -131.56960231 216.72592506 -139.12182975 216.7152479 C-142.97822215 216.70997628 -146.83454509 216.70795963 -150.69093704 216.7145462 C-154.86343635 216.72156512 -159.03575887 216.71320869 -163.20825195 216.70318604 C-164.43838359 216.70764748 -165.66851522 216.71210892 -166.93592358 216.71670556 C-168.04639207 216.71149007 -169.15686056 216.70627457 -170.30097961 216.70090103 C-171.74722702 216.70041397 -171.74722702 216.70041397 -173.22269154 216.69991708 C-175.5078125 216.44921875 -175.5078125 216.44921875 -177.5078125 214.44921875 C-177.73944665 211.53123011 -177.83964249 208.74304799 -177.8203125 205.82421875 C-177.81612305 204.97118164 -177.81193359 204.11814453 -177.80761719 203.23925781 C-177.66434284 195.04213606 -176.38943416 187.40741944 -174.5078125 179.44921875 C-174.24097656 178.24136719 -173.97414063 177.03351563 -173.69921875 175.7890625 C-164.82393332 138.90732082 -140.26967372 105.93680043 -108.5078125 85.44921875 C-107.84990723 85.02205566 -107.19200195 84.59489258 -106.51416016 84.15478516 C-91.62923898 74.63226589 -75.6718724 67.67390412 -58.5078125 63.44921875 C-57.35152344 63.15144531 -56.19523437 62.85367188 -55.00390625 62.546875 C-49.39488008 61.16216661 -44.28988615 60.04581826 -38.5078125 60.44921875 C-39.2090625 59.80984375 -39.9103125 59.17046875 -40.6328125 58.51171875 C-48.48169433 50.57364508 -52.50314047 41.58910129 -52.9453125 30.44921875 C-52.6111977 20.40007351 -48.74672884 13.83202205 -41.87890625 6.6484375 C-30.75439789 -3.66968146 -13.9713927 -6.05143909 0 0 Z " fill="#FEFEFE" transform="translate(272.5078125,72.55078125)"/>
<path d="M0 0 C3.46222613 -0.02508621 6.92376928 -0.06512712 10.38568115 -0.11791992 C14.51931984 -0.17888246 18.65166411 -0.20307825 22.78573608 -0.20007706 C24.32606831 -0.20425717 25.86642008 -0.22017538 27.40649414 -0.24868393 C40.68814477 -0.4780571 40.68814477 -0.4780571 45.88632202 3.88195801 C49.47740492 7.59955228 51.32455053 11.14934663 51.58041382 16.3326416 C51.45279801 21.42226039 49.83143025 24.04072681 46.52572632 27.7935791 C37.65057198 34.1250755 26.69465682 35.08633339 16.20541382 36.7076416 C14.62646858 36.96049356 13.04769085 37.21439383 11.46908569 37.46936035 C6.9877742 38.18960552 2.50351617 38.88967944 -1.98208618 39.5826416 C-2.66156311 39.68782104 -3.34104004 39.79300049 -4.04110718 39.90136719 C-7.68754951 40.46541161 -11.33451411 41.02595157 -14.98208618 41.5826416 C-4.34980761 42.88692988 6.23893649 43.81524177 16.95541382 43.9576416 C18.31871826 43.99631348 18.31871826 43.99631348 19.70956421 44.0357666 C32.92831168 44.07386441 44.65293791 38.22536664 56.40292358 32.77453613 C58.70801086 31.70643822 61.01959076 30.65350147 63.33236694 29.60217285 C79.97616423 21.9986365 79.97616423 21.9986365 94.01791382 10.4576416 C98.79304948 5.98095192 103.66626989 5.10018898 110.01791382 5.2076416 C111.04658569 5.19023926 111.04658569 5.19023926 112.09603882 5.17248535 C118.05694484 5.20661268 122.08222636 6.74883243 126.39291382 10.8326416 C128.57597933 14.52706017 128.64650417 16.32219588 128.01791382 20.5826416 C124.89260065 29.27925006 119.11334555 35.2109376 112.58041382 41.5201416 C111.58476054 42.49689795 110.5892375 43.47378707 109.59384155 44.45080566 C102.47149768 51.39153162 95.16617068 57.86999197 87.01791382 63.5826416 C86.13643677 64.21468506 86.13643677 64.21468506 85.2371521 64.85949707 C78.41608624 69.72599908 71.40700679 74.11902491 63.95541382 77.9576416 C63.07393677 78.42206665 63.07393677 78.42206665 62.1746521 78.89587402 C50.82591447 84.50314469 39.56082851 86.18654265 27.01791382 85.8951416 C25.64553513 85.87807711 24.27313755 85.86247509 22.90072632 85.8482666 C14.41036903 85.74059903 5.93539584 85.39343491 -2.54336548 84.94812012 C-41.38050706 81.97198962 -41.38050706 81.97198962 -75.98208618 96.4576416 C-79.55160184 99.85933193 -81.75326686 103.21415573 -83.98208618 107.5826416 C-86.2599029 108.72154996 -87.51351016 108.71062769 -90.04348755 108.71635437 C-90.89317612 108.72061935 -91.74286469 108.72488434 -92.61830139 108.72927856 C-93.55239334 108.72882538 -94.48648529 108.72837219 -95.44888306 108.72790527 C-96.43107315 108.73126389 -97.41326324 108.7346225 -98.42521667 108.73808289 C-101.68376924 108.74761049 -104.94227054 108.7495368 -108.20083618 108.75061035 C-110.45763165 108.75382128 -112.7144269 108.75718522 -114.97122192 108.76069641 C-119.70580529 108.76669194 -124.44037038 108.76853584 -129.17495728 108.76794434 C-135.25507073 108.7678426 -141.3350677 108.78150489 -147.4151535 108.79871655 C-152.07671654 108.80980931 -156.73825116 108.8118644 -161.39982605 108.81133461 C-163.64221092 108.81251846 -165.88459644 108.81696273 -168.12696838 108.82466698 C-171.2564929 108.83441358 -174.38576107 108.83161018 -177.51528931 108.82556152 C-178.91642723 108.83399078 -178.91642723 108.83399078 -180.34587097 108.84259033 C-181.19555954 108.83839584 -182.04524811 108.83420135 -182.92068481 108.82987976 C-184.03123608 108.83069691 -184.03123608 108.83069691 -185.16422272 108.83153057 C-186.98208618 108.5826416 -186.98208618 108.5826416 -188.98208618 106.5826416 C-189.58257297 102.21969344 -188.2742773 99.85168174 -185.93911743 96.2232666 C-185.28362915 95.19789795 -184.62814087 94.1725293 -183.95278931 93.11608887 C-183.24058228 92.03255127 -182.52837524 90.94901367 -181.79458618 89.8326416 C-181.06337802 88.7063155 -180.33225891 87.57993159 -179.60122681 86.45349121 C-173.51277691 77.13688136 -166.93912767 68.26567632 -159.98208618 59.5826416 C-158.91280884 58.21365723 -158.91280884 58.21365723 -157.82192993 56.8170166 C-155.90632348 54.37825685 -153.95415052 51.97595976 -151.98208618 49.5826416 C-151.56169067 49.06669434 -151.14129517 48.55074707 -150.7081604 48.01916504 C-139.72323291 34.59271263 -127.7775465 22.76474888 -112.98208618 13.5826416 C-112.10036743 13.00771973 -111.21864868 12.43279785 -110.31021118 11.8404541 C-81.03996174 -5.16336132 -32.74963919 0.2367282 0 0 Z " fill="#FDFEFD" transform="translate(274.9820861816406,334.4173583984375)"/>
<path d="M0 0 C1.28463827 -0.00521549 2.56927654 -0.01043099 3.89284325 -0.01580453 C5.33191355 -0.01147973 6.7709833 -0.00696639 8.21005249 -0.002285 C9.72828127 -0.00458732 11.24650895 -0.0077623 12.76473427 -0.01173949 C16.95216354 -0.02012766 21.13950225 -0.01594409 25.32693195 -0.00976706 C29.8368677 -0.00525992 34.34678737 -0.01221764 38.85671997 -0.0177269 C47.69777857 -0.02664121 56.53880331 -0.02468984 65.37986326 -0.01890162 C72.56229653 -0.01439312 79.74472027 -0.01376869 86.92715454 -0.01594925 C88.45788131 -0.01640895 88.45788131 -0.01640895 90.01953185 -0.01687793 C92.09233332 -0.01751736 94.16513479 -0.01816578 96.23793626 -0.01882312 C115.69524756 -0.02453238 135.15254005 -0.01795918 154.60984826 -0.00722238 C171.32148175 0.00171367 188.03308747 0.00016179 204.74472046 -0.00905991 C224.13026322 -0.01975202 243.51578947 -0.023983 262.90133476 -0.01783538 C264.96670405 -0.01719825 267.03207334 -0.01656951 269.09744263 -0.01594925 C270.11376381 -0.0156407 271.13008498 -0.01533215 272.17720377 -0.01501425 C279.35476299 -0.01328412 286.53231178 -0.01620922 293.70986938 -0.02090836 C302.45152808 -0.02650545 311.19315084 -0.02502552 319.93480539 -0.01434687 C324.39877457 -0.00907431 328.86268373 -0.00706021 333.32665253 -0.01364517 C337.40751889 -0.01957417 341.48826921 -0.01638042 345.56912494 -0.00569007 C347.05092018 -0.003443 348.5327251 -0.00462129 350.01451421 -0.00944164 C352.01786862 -0.01546227 354.02125022 -0.00813338 356.02459717 0 C357.69867677 0.00048706 357.69867677 0.00048706 359.40657616 0.00098395 C362.01229858 0.25168228 362.01229858 0.25168228 364.01229858 2.25168228 C364.19979858 4.81418228 364.19979858 4.81418228 364.01229858 7.25168228 C362.21906753 9.04491333 359.53383538 8.37717355 357.11361694 8.37752342 C355.82338623 8.38013117 354.53315552 8.38273892 353.2038269 8.38542569 C351.75326524 8.38326316 350.30270372 8.38100648 348.85214233 8.37866592 C347.32581546 8.37981675 345.79948886 8.38140402 344.27316284 8.38339317 C340.05876305 8.38759175 335.84438572 8.38549343 331.62998581 8.38240695 C327.09278964 8.38015521 322.55559748 8.38363133 318.0184021 8.38638687 C309.12207048 8.39084599 300.22574728 8.38986747 291.32941532 8.38697423 C284.10261529 8.38472075 276.87581762 8.38440743 269.64901733 8.38549805 C268.62255789 8.38565128 267.59609844 8.38580451 266.53853416 8.38596239 C264.45365143 8.3862821 262.36876869 8.38660631 260.28388596 8.38693498 C240.70929918 8.38979019 221.13471708 8.38650211 201.56013107 8.38113461 C184.7447054 8.37666654 167.92928663 8.37744246 151.11386108 8.38205338 C131.61187628 8.38739842 112.10989559 8.38951549 92.60791016 8.38644111 C90.53046672 8.38612254 88.45302328 8.38580817 86.37557983 8.38549805 C85.35329473 8.38534377 84.33100964 8.3851895 83.2777462 8.38503055 C76.05514808 8.38416518 68.83255255 8.38562869 61.60995483 8.3879776 C52.81445457 8.39077503 44.01896324 8.39003856 35.22346401 8.38469686 C30.73128709 8.38205906 26.23912508 8.38105609 21.74694824 8.38434601 C17.64145373 8.38730738 13.53598808 8.38571885 9.43049622 8.38036846 C7.93859384 8.37924358 6.44668907 8.37983698 4.95478821 8.38224424 C2.94018717 8.38524766 0.92557939 8.38159523 -1.08901978 8.37752342 C-2.21207016 8.37736107 -3.33512054 8.37719872 -4.49220276 8.37703145 C-6.98770142 8.25168228 -6.98770142 8.25168228 -7.98770142 7.25168228 C-8.17520142 4.81418228 -8.17520142 4.81418228 -7.98770142 2.25168228 C-5.26362287 -0.47239626 -3.81462002 0.00110983 0 0 Z " fill="#F1F7F4" transform="translate(77.98770141601563,305.74831771850586)"/>
</svg>
